<mxfile host="65bd71144e">
    <diagram id="Db7OJCisMnHbvPnB_t9w" name="Page-1">
        <mxGraphModel dx="3223" dy="1569" grid="1" gridSize="10" guides="1" tooltips="1" connect="1" arrows="1" fold="1" page="1" pageScale="1" pageWidth="850" pageHeight="1100" math="0" shadow="0">
            <root>
                <mxCell id="0"/>
                <mxCell id="1" parent="0"/>
                <mxCell id="6" value="Orangtua &amp;amp; Siswa" style="swimlane;whiteSpace=wrap;html=1;" parent="1" vertex="1">
                    <mxGeometry x="-70" y="150" width="375" height="470" as="geometry"/>
                </mxCell>
                <mxCell id="9" value="" style="shape=waypoint;sketch=0;fillStyle=solid;size=6;pointerEvents=1;points=[];fillColor=none;resizable=0;rotatable=0;perimeter=centerPerimeter;snapToPoint=1;strokeWidth=5;" parent="6" vertex="1">
                    <mxGeometry x="85" y="40" width="20" height="20" as="geometry"/>
                </mxCell>
                <mxCell id="11" value="LOGIN" style="rounded=1;whiteSpace=wrap;html=1;" parent="6" vertex="1">
                    <mxGeometry x="67.5" y="80" width="55" height="20" as="geometry"/>
                </mxCell>
                <mxCell id="12" value="" style="endArrow=classic;html=1;exitX=0.398;exitY=0.731;exitDx=0;exitDy=0;exitPerimeter=0;entryX=0.5;entryY=0;entryDx=0;entryDy=0;" parent="6" source="9" target="11" edge="1">
                    <mxGeometry width="50" height="50" relative="1" as="geometry">
                        <mxPoint x="225" y="180" as="sourcePoint"/>
                        <mxPoint x="275" y="130" as="targetPoint"/>
                    </mxGeometry>
                </mxCell>
                <mxCell id="13" value="DASHBORD" style="rounded=1;whiteSpace=wrap;html=1;" parent="6" vertex="1">
                    <mxGeometry x="60" y="130" width="70" height="30" as="geometry"/>
                </mxCell>
                <mxCell id="15" value="memilih fitur" style="rounded=1;whiteSpace=wrap;html=1;" parent="6" vertex="1">
                    <mxGeometry x="150" y="205" width="85" height="40" as="geometry"/>
                </mxCell>
                <mxCell id="16" value="" style="endArrow=classic;html=1;exitX=0.5;exitY=1;exitDx=0;exitDy=0;" parent="6" source="11" target="13" edge="1">
                    <mxGeometry width="50" height="50" relative="1" as="geometry">
                        <mxPoint x="265" y="240" as="sourcePoint"/>
                        <mxPoint x="315" y="190" as="targetPoint"/>
                    </mxGeometry>
                </mxCell>
                <mxCell id="20" value="" style="endArrow=classic;html=1;exitX=0.917;exitY=0.989;exitDx=0;exitDy=0;entryX=0.5;entryY=0;entryDx=0;entryDy=0;exitPerimeter=0;" parent="6" source="15" target="106" edge="1">
                    <mxGeometry width="50" height="50" relative="1" as="geometry">
                        <mxPoint x="105" y="110" as="sourcePoint"/>
                        <mxPoint x="105" y="140" as="targetPoint"/>
                        <Array as="points">
                            <mxPoint x="275" y="240"/>
                        </Array>
                    </mxGeometry>
                </mxCell>
                <mxCell id="58" value="menampilkan mapel" style="rounded=1;whiteSpace=wrap;html=1;" parent="6" vertex="1">
                    <mxGeometry x="170" y="310" width="85" height="40" as="geometry"/>
                </mxCell>
                <mxCell id="19" value="melihat absensi" style="rounded=1;whiteSpace=wrap;html=1;" parent="6" vertex="1">
                    <mxGeometry x="15" y="390" width="130" height="40" as="geometry"/>
                </mxCell>
                <mxCell id="63" value="" style="endArrow=classic;html=1;exitX=0.373;exitY=1.021;exitDx=0;exitDy=0;entryX=0.75;entryY=0;entryDx=0;entryDy=0;exitPerimeter=0;" parent="6" source="58" target="19" edge="1">
                    <mxGeometry width="50" height="50" relative="1" as="geometry">
                        <mxPoint x="100" y="319" as="sourcePoint"/>
                        <mxPoint x="118" y="370" as="targetPoint"/>
                        <Array as="points">
                            <mxPoint x="155" y="360"/>
                        </Array>
                    </mxGeometry>
                </mxCell>
                <mxCell id="55" value="melihatnilai" style="rounded=1;whiteSpace=wrap;html=1;" parent="6" vertex="1">
                    <mxGeometry x="185" y="380" width="85" height="40" as="geometry"/>
                </mxCell>
                <mxCell id="61" value="" style="endArrow=classic;html=1;exitX=0.5;exitY=1;exitDx=0;exitDy=0;entryX=0.5;entryY=0;entryDx=0;entryDy=0;" parent="6" source="58" target="55" edge="1">
                    <mxGeometry width="50" height="50" relative="1" as="geometry">
                        <mxPoint x="75" y="340" as="sourcePoint"/>
                        <mxPoint x="45" y="380" as="targetPoint"/>
                    </mxGeometry>
                </mxCell>
                <mxCell id="106" value="melihat mapel" style="rounded=1;whiteSpace=wrap;html=1;" vertex="1" parent="6">
                    <mxGeometry x="245" y="250" width="85" height="40" as="geometry"/>
                </mxCell>
                <mxCell id="86" value="mapel" style="rounded=1;whiteSpace=wrap;html=1;" vertex="1" parent="6">
                    <mxGeometry x="310" y="310" width="85" height="40" as="geometry"/>
                </mxCell>
                <mxCell id="105" value="" style="endArrow=classic;html=1;exitX=0.5;exitY=1;exitDx=0;exitDy=0;entryX=0.346;entryY=-0.044;entryDx=0;entryDy=0;entryPerimeter=0;" edge="1" parent="6" source="106" target="86">
                    <mxGeometry width="50" height="50" relative="1" as="geometry">
                        <mxPoint x="238" y="255" as="sourcePoint"/>
                        <mxPoint x="238" y="290" as="targetPoint"/>
                        <Array as="points"/>
                    </mxGeometry>
                </mxCell>
                <mxCell id="107" value="" style="endArrow=classic;html=1;exitX=0;exitY=0.5;exitDx=0;exitDy=0;entryX=1;entryY=0.5;entryDx=0;entryDy=0;" edge="1" parent="6" source="86" target="58">
                    <mxGeometry width="50" height="50" relative="1" as="geometry">
                        <mxPoint x="298" y="300" as="sourcePoint"/>
                        <mxPoint x="329" y="318" as="targetPoint"/>
                        <Array as="points"/>
                    </mxGeometry>
                </mxCell>
                <mxCell id="7" value="Guru" style="swimlane;whiteSpace=wrap;html=1;" parent="1" vertex="1">
                    <mxGeometry x="305" y="150" width="240" height="470" as="geometry"/>
                </mxCell>
                <mxCell id="14" value="Menampilkan profil dashboard" style="rounded=1;whiteSpace=wrap;html=1;" parent="7" vertex="1">
                    <mxGeometry x="-55" y="125" width="85" height="40" as="geometry"/>
                </mxCell>
                <mxCell id="21" value="dashboard" style="rounded=1;whiteSpace=wrap;html=1;" parent="7" vertex="1">
                    <mxGeometry x="87.5" y="125" width="85" height="40" as="geometry"/>
                </mxCell>
                <mxCell id="25" value="" style="shape=waypoint;sketch=0;fillStyle=solid;size=6;pointerEvents=1;points=[];fillColor=none;resizable=0;rotatable=0;perimeter=centerPerimeter;snapToPoint=1;strokeWidth=5;" parent="7" vertex="1">
                    <mxGeometry x="120" y="40" width="20" height="20" as="geometry"/>
                </mxCell>
                <mxCell id="26" value="LOGIN" style="rounded=1;whiteSpace=wrap;html=1;" parent="7" vertex="1">
                    <mxGeometry x="102.5" y="80" width="55" height="20" as="geometry"/>
                </mxCell>
                <mxCell id="29" value="" style="endArrow=classic;html=1;entryX=0.5;entryY=0;entryDx=0;entryDy=0;" parent="7" source="25" target="26" edge="1">
                    <mxGeometry width="50" height="50" relative="1" as="geometry">
                        <mxPoint x="-185" y="60" as="sourcePoint"/>
                        <mxPoint x="-185" y="90" as="targetPoint"/>
                    </mxGeometry>
                </mxCell>
                <mxCell id="32" value="melihat mapel" style="rounded=1;whiteSpace=wrap;html=1;" parent="7" vertex="1">
                    <mxGeometry x="45" y="190" width="85" height="40" as="geometry"/>
                </mxCell>
                <mxCell id="34" value="" style="endArrow=classic;html=1;exitX=0;exitY=0.5;exitDx=0;exitDy=0;entryX=1;entryY=0.5;entryDx=0;entryDy=0;" parent="7" source="21" target="14" edge="1">
                    <mxGeometry width="50" height="50" relative="1" as="geometry">
                        <mxPoint x="-150" y="155" as="sourcePoint"/>
                        <mxPoint x="-45" y="155" as="targetPoint"/>
                    </mxGeometry>
                </mxCell>
                <mxCell id="36" value="mengisi absen" style="rounded=1;whiteSpace=wrap;html=1;" parent="7" vertex="1">
                    <mxGeometry x="30" y="260" width="85" height="40" as="geometry"/>
                </mxCell>
                <mxCell id="37" value="mengisi nilai siswa" style="rounded=1;whiteSpace=wrap;html=1;" parent="7" vertex="1">
                    <mxGeometry x="140" y="260" width="85" height="40" as="geometry"/>
                </mxCell>
                <mxCell id="48" value="memilih fitur" style="rounded=1;whiteSpace=wrap;html=1;" parent="7" vertex="1">
                    <mxGeometry x="155" y="190" width="85" height="40" as="geometry"/>
                </mxCell>
                <mxCell id="49" value="" style="endArrow=classic;html=1;entryX=0;entryY=0.5;entryDx=0;entryDy=0;exitX=1;exitY=0.5;exitDx=0;exitDy=0;" parent="7" source="32" target="48" edge="1">
                    <mxGeometry width="50" height="50" relative="1" as="geometry">
                        <mxPoint x="-55" y="260" as="sourcePoint"/>
                        <mxPoint x="-5" y="210" as="targetPoint"/>
                    </mxGeometry>
                </mxCell>
                <mxCell id="50" value="" style="endArrow=classic;html=1;entryX=0.5;entryY=0;entryDx=0;entryDy=0;exitX=0.5;exitY=1;exitDx=0;exitDy=0;" parent="7" source="48" target="37" edge="1">
                    <mxGeometry width="50" height="50" relative="1" as="geometry">
                        <mxPoint x="140" y="220" as="sourcePoint"/>
                        <mxPoint x="165" y="220" as="targetPoint"/>
                        <Array as="points">
                            <mxPoint x="198" y="240"/>
                            <mxPoint x="185" y="240"/>
                        </Array>
                    </mxGeometry>
                </mxCell>
                <mxCell id="51" value="" style="endArrow=classic;html=1;entryX=0.5;entryY=0;entryDx=0;entryDy=0;exitX=0.25;exitY=1;exitDx=0;exitDy=0;" parent="7" source="48" target="36" edge="1">
                    <mxGeometry width="50" height="50" relative="1" as="geometry">
                        <mxPoint x="208" y="240" as="sourcePoint"/>
                        <mxPoint x="193" y="270" as="targetPoint"/>
                        <Array as="points">
                            <mxPoint x="175" y="240"/>
                            <mxPoint x="73" y="240"/>
                        </Array>
                    </mxGeometry>
                </mxCell>
                <mxCell id="64" value="nilai dan absen" style="rounded=1;whiteSpace=wrap;html=1;" parent="7" vertex="1">
                    <mxGeometry x="-15" y="420" width="85" height="40" as="geometry"/>
                </mxCell>
                <mxCell id="65" value="" style="endArrow=classic;html=1;exitX=0.435;exitY=0.937;exitDx=0;exitDy=0;entryX=0.5;entryY=0;entryDx=0;entryDy=0;exitPerimeter=0;" parent="7" source="36" target="64" edge="1">
                    <mxGeometry width="50" height="50" relative="1" as="geometry">
                        <mxPoint x="-53" y="320" as="sourcePoint"/>
                        <mxPoint x="-103" y="470" as="targetPoint"/>
                    </mxGeometry>
                </mxCell>
                <mxCell id="66" value="" style="endArrow=classic;html=1;exitX=0.5;exitY=1;exitDx=0;exitDy=0;entryX=0.5;entryY=0;entryDx=0;entryDy=0;" parent="7" source="37" target="64" edge="1">
                    <mxGeometry width="50" height="50" relative="1" as="geometry">
                        <mxPoint x="77" y="307" as="sourcePoint"/>
                        <mxPoint x="12" y="370" as="targetPoint"/>
                    </mxGeometry>
                </mxCell>
                <mxCell id="8" value="Admin sekolah" style="swimlane;whiteSpace=wrap;html=1;startSize=23;" parent="1" vertex="1">
                    <mxGeometry x="550" y="160" width="240" height="450" as="geometry"/>
                </mxCell>
                <mxCell id="27" value="LOGIN" style="rounded=1;whiteSpace=wrap;html=1;" parent="8" vertex="1">
                    <mxGeometry x="107.5" y="80" width="55" height="20" as="geometry"/>
                </mxCell>
                <mxCell id="28" value="" style="shape=waypoint;sketch=0;fillStyle=solid;size=6;pointerEvents=1;points=[];fillColor=none;resizable=0;rotatable=0;perimeter=centerPerimeter;snapToPoint=1;strokeWidth=5;" parent="8" vertex="1">
                    <mxGeometry x="125" y="40" width="20" height="20" as="geometry"/>
                </mxCell>
                <mxCell id="30" value="" style="endArrow=classic;html=1;entryX=0.5;entryY=0;entryDx=0;entryDy=0;exitX=0.002;exitY=0.872;exitDx=0;exitDy=0;exitPerimeter=0;" parent="8" source="28" target="27" edge="1">
                    <mxGeometry width="50" height="50" relative="1" as="geometry">
                        <mxPoint x="-100" y="60" as="sourcePoint"/>
                        <mxPoint x="-100" y="90" as="targetPoint"/>
                    </mxGeometry>
                </mxCell>
                <mxCell id="31" value="dashboard" style="rounded=1;whiteSpace=wrap;html=1;" parent="8" vertex="1">
                    <mxGeometry x="92.5" y="120" width="85" height="40" as="geometry"/>
                </mxCell>
                <mxCell id="70" value="memilih fitur" style="rounded=1;whiteSpace=wrap;html=1;" parent="8" vertex="1">
                    <mxGeometry x="95" y="190" width="85" height="40" as="geometry"/>
                </mxCell>
                <mxCell id="80" value="mendata pembayran" style="rounded=1;whiteSpace=wrap;html=1;" vertex="1" parent="8">
                    <mxGeometry x="145" y="260" width="85" height="40" as="geometry"/>
                </mxCell>
                <mxCell id="81" value="memberi pengumuman" style="rounded=1;whiteSpace=wrap;html=1;" vertex="1" parent="8">
                    <mxGeometry x="107.5" y="320" width="85" height="40" as="geometry"/>
                </mxCell>
                <mxCell id="82" value="" style="endArrow=classic;html=1;entryX=0.5;entryY=0;entryDx=0;entryDy=0;exitX=0.5;exitY=1;exitDx=0;exitDy=0;" edge="1" parent="8" source="70" target="81">
                    <mxGeometry width="50" height="50" relative="1" as="geometry">
                        <mxPoint x="-37" y="230" as="sourcePoint"/>
                        <mxPoint x="-52" y="260" as="targetPoint"/>
                        <Array as="points">
                            <mxPoint x="130" y="270"/>
                        </Array>
                    </mxGeometry>
                </mxCell>
                <mxCell id="83" value="" style="endArrow=classic;html=1;entryX=0.5;entryY=0;entryDx=0;entryDy=0;exitX=0.5;exitY=1;exitDx=0;exitDy=0;" edge="1" parent="8" source="70" target="80">
                    <mxGeometry width="50" height="50" relative="1" as="geometry">
                        <mxPoint x="143" y="330" as="sourcePoint"/>
                        <mxPoint x="40" y="360" as="targetPoint"/>
                        <Array as="points">
                            <mxPoint x="150" y="250"/>
                            <mxPoint x="180" y="240"/>
                        </Array>
                    </mxGeometry>
                </mxCell>
                <mxCell id="84" value="membuat mapel" style="rounded=1;whiteSpace=wrap;html=1;" vertex="1" parent="8">
                    <mxGeometry x="40" y="260" width="85" height="40" as="geometry"/>
                </mxCell>
                <mxCell id="108" value="" style="endArrow=classic;html=1;entryX=0.5;entryY=0;entryDx=0;entryDy=0;exitX=0.343;exitY=1.006;exitDx=0;exitDy=0;exitPerimeter=0;" edge="1" parent="8" source="70" target="84">
                    <mxGeometry width="50" height="50" relative="1" as="geometry">
                        <mxPoint x="148" y="240" as="sourcePoint"/>
                        <mxPoint x="198" y="270" as="targetPoint"/>
                        <Array as="points">
                            <mxPoint x="100" y="250"/>
                        </Array>
                    </mxGeometry>
                </mxCell>
                <mxCell id="17" value="" style="endArrow=classic;html=1;exitX=1;exitY=0.5;exitDx=0;exitDy=0;entryX=0;entryY=0.5;entryDx=0;entryDy=0;" parent="1" source="13" target="14" edge="1">
                    <mxGeometry width="50" height="50" relative="1" as="geometry">
                        <mxPoint x="170" y="260" as="sourcePoint"/>
                        <mxPoint x="170" y="290" as="targetPoint"/>
                    </mxGeometry>
                </mxCell>
                <mxCell id="18" value="" style="endArrow=classic;html=1;exitX=0.5;exitY=1;exitDx=0;exitDy=0;entryX=1;entryY=0.5;entryDx=0;entryDy=0;" parent="1" source="14" target="15" edge="1">
                    <mxGeometry width="50" height="50" relative="1" as="geometry">
                        <mxPoint x="205" y="305" as="sourcePoint"/>
                        <mxPoint x="270" y="305" as="targetPoint"/>
                        <Array as="points">
                            <mxPoint x="293" y="375"/>
                        </Array>
                    </mxGeometry>
                </mxCell>
                <mxCell id="35" value="" style="endArrow=classic;html=1;exitX=0.605;exitY=1.004;exitDx=0;exitDy=0;exitPerimeter=0;" parent="1" source="14" edge="1">
                    <mxGeometry width="50" height="50" relative="1" as="geometry">
                        <mxPoint x="403" y="305" as="sourcePoint"/>
                        <mxPoint x="350" y="360" as="targetPoint"/>
                        <Array as="points">
                            <mxPoint x="301" y="360"/>
                        </Array>
                    </mxGeometry>
                </mxCell>
                <mxCell id="68" value="" style="endArrow=classic;html=1;exitX=1;exitY=0.5;exitDx=0;exitDy=0;" parent="1" source="55" target="64" edge="1">
                    <mxGeometry width="50" height="50" relative="1" as="geometry">
                        <mxPoint x="402" y="477" as="sourcePoint"/>
                        <mxPoint x="337" y="540" as="targetPoint"/>
                    </mxGeometry>
                </mxCell>
                <mxCell id="69" value="" style="endArrow=classic;html=1;exitX=0.75;exitY=1;exitDx=0;exitDy=0;entryX=0;entryY=0.5;entryDx=0;entryDy=0;" parent="1" source="19" target="64" edge="1">
                    <mxGeometry width="50" height="50" relative="1" as="geometry">
                        <mxPoint x="165" y="560" as="sourcePoint"/>
                        <mxPoint x="237" y="480" as="targetPoint"/>
                    </mxGeometry>
                </mxCell>
                <mxCell id="73" value="menampilkan nilai" style="rounded=1;whiteSpace=wrap;html=1;" parent="1" vertex="1">
                    <mxGeometry x="150" y="660" width="85" height="40" as="geometry"/>
                </mxCell>
                <mxCell id="74" value="menampilkan absensi" style="rounded=1;whiteSpace=wrap;html=1;" parent="1" vertex="1">
                    <mxGeometry x="40" y="650" width="85" height="40" as="geometry"/>
                </mxCell>
                <mxCell id="75" value="" style="endArrow=classic;html=1;exitX=0.335;exitY=1.018;exitDx=0;exitDy=0;entryX=0.5;entryY=0;entryDx=0;entryDy=0;exitPerimeter=0;" parent="1" source="64" target="74" edge="1">
                    <mxGeometry width="50" height="50" relative="1" as="geometry">
                        <mxPoint x="143" y="560" as="sourcePoint"/>
                        <mxPoint x="300" y="620" as="targetPoint"/>
                        <Array as="points">
                            <mxPoint x="320" y="650"/>
                            <mxPoint x="120" y="640"/>
                        </Array>
                    </mxGeometry>
                </mxCell>
                <mxCell id="76" value="" style="endArrow=classic;html=1;exitX=0.5;exitY=1;exitDx=0;exitDy=0;entryX=0.5;entryY=0;entryDx=0;entryDy=0;" parent="1" source="64" target="73" edge="1">
                    <mxGeometry width="50" height="50" relative="1" as="geometry">
                        <mxPoint x="328" y="641" as="sourcePoint"/>
                        <mxPoint x="133" y="670" as="targetPoint"/>
                        <Array as="points">
                            <mxPoint x="330" y="660"/>
                            <mxPoint x="240" y="660"/>
                        </Array>
                    </mxGeometry>
                </mxCell>
                <mxCell id="77" value="" style="endArrow=classic;html=1;entryX=0.5;entryY=0;entryDx=0;entryDy=0;" edge="1" parent="1" target="31">
                    <mxGeometry width="50" height="50" relative="1" as="geometry">
                        <mxPoint x="680" y="250" as="sourcePoint"/>
                        <mxPoint x="690" y="240" as="targetPoint"/>
                    </mxGeometry>
                </mxCell>
                <mxCell id="78" value="" style="endArrow=classic;html=1;entryX=0.75;entryY=0;entryDx=0;entryDy=0;exitX=0;exitY=0.5;exitDx=0;exitDy=0;" edge="1" parent="1" source="31" target="14">
                    <mxGeometry width="50" height="50" relative="1" as="geometry">
                        <mxPoint x="690" y="210" as="sourcePoint"/>
                        <mxPoint x="690" y="240" as="targetPoint"/>
                        <Array as="points">
                            <mxPoint x="600" y="295"/>
                            <mxPoint x="610" y="260"/>
                            <mxPoint x="320" y="260"/>
                        </Array>
                    </mxGeometry>
                </mxCell>
                <mxCell id="79" value="" style="endArrow=classic;html=1;exitX=1;exitY=1;exitDx=0;exitDy=0;entryX=0;entryY=0.5;entryDx=0;entryDy=0;" edge="1" parent="1" source="14" target="70">
                    <mxGeometry width="50" height="50" relative="1" as="geometry">
                        <mxPoint x="403" y="305" as="sourcePoint"/>
                        <mxPoint x="345" y="305" as="targetPoint"/>
                        <Array as="points">
                            <mxPoint x="330" y="330"/>
                            <mxPoint x="610" y="340"/>
                        </Array>
                    </mxGeometry>
                </mxCell>
                <mxCell id="85" value="" style="endArrow=classic;html=1;exitX=0.25;exitY=1;exitDx=0;exitDy=0;entryX=1;entryY=0.5;entryDx=0;entryDy=0;" edge="1" parent="1" source="84" target="86">
                    <mxGeometry width="50" height="50" relative="1" as="geometry">
                        <mxPoint x="627.3499999999999" y="480" as="sourcePoint"/>
                        <mxPoint x="580" y="509.72" as="targetPoint"/>
                        <Array as="points">
                            <mxPoint x="610" y="500"/>
                        </Array>
                    </mxGeometry>
                </mxCell>
                <mxCell id="56" value="melihat pembayaran" style="rounded=1;whiteSpace=wrap;html=1;" parent="1" vertex="1">
                    <mxGeometry x="-380" y="570" width="85" height="40" as="geometry"/>
                </mxCell>
                <mxCell id="59" value="" style="endArrow=classic;html=1;exitX=0;exitY=0.75;exitDx=0;exitDy=0;entryX=0.25;entryY=0;entryDx=0;entryDy=0;" parent="1" source="15" target="56" edge="1">
                    <mxGeometry width="50" height="50" relative="1" as="geometry">
                        <mxPoint x="90" y="385" as="sourcePoint"/>
                        <mxPoint x="-17" y="430" as="targetPoint"/>
                        <Array as="points">
                            <mxPoint x="5" y="410"/>
                            <mxPoint x="-85" y="370"/>
                        </Array>
                    </mxGeometry>
                </mxCell>
                <mxCell id="57" value="Melihat pengumuman" style="rounded=1;whiteSpace=wrap;html=1;" parent="1" vertex="1">
                    <mxGeometry x="-180" y="540" width="85" height="40" as="geometry"/>
                </mxCell>
                <mxCell id="60" value="" style="endArrow=classic;html=1;exitX=0.5;exitY=1;exitDx=0;exitDy=0;entryX=0.5;entryY=0;entryDx=0;entryDy=0;" parent="1" source="15" target="57" edge="1">
                    <mxGeometry width="50" height="50" relative="1" as="geometry">
                        <mxPoint x="90" y="395" as="sourcePoint"/>
                        <mxPoint x="51" y="430" as="targetPoint"/>
                        <Array as="points">
                            <mxPoint x="105" y="430"/>
                            <mxPoint x="75" y="420"/>
                        </Array>
                    </mxGeometry>
                </mxCell>
                <mxCell id="109" value="pengumuman" style="rounded=1;whiteSpace=wrap;html=1;" vertex="1" parent="1">
                    <mxGeometry x="290" y="730" width="85" height="40" as="geometry"/>
                </mxCell>
                <mxCell id="110" value="mendata" style="rounded=1;whiteSpace=wrap;html=1;" vertex="1" parent="1">
                    <mxGeometry x="270" y="870" width="85" height="40" as="geometry"/>
                </mxCell>
                <mxCell id="111" value="" style="endArrow=classic;html=1;exitX=0.5;exitY=1;exitDx=0;exitDy=0;entryX=1;entryY=0.5;entryDx=0;entryDy=0;" edge="1" parent="1" source="81" target="109">
                    <mxGeometry width="50" height="50" relative="1" as="geometry">
                        <mxPoint x="650" y="670" as="sourcePoint"/>
                        <mxPoint x="390" y="815" as="targetPoint"/>
                        <Array as="points">
                            <mxPoint x="700" y="750"/>
                        </Array>
                    </mxGeometry>
                </mxCell>
                <mxCell id="112" value="" style="endArrow=classic;html=1;exitX=0.5;exitY=1;exitDx=0;exitDy=0;entryX=0;entryY=0.5;entryDx=0;entryDy=0;" edge="1" parent="1" source="57" target="109">
                    <mxGeometry width="50" height="50" relative="1" as="geometry">
                        <mxPoint x="710" y="530" as="sourcePoint"/>
                        <mxPoint x="365" y="760" as="targetPoint"/>
                        <Array as="points">
                            <mxPoint x="-137" y="750"/>
                        </Array>
                    </mxGeometry>
                </mxCell>
                <mxCell id="113" value="" style="endArrow=classic;html=1;exitX=0;exitY=1;exitDx=0;exitDy=0;" edge="1" parent="1" source="109">
                    <mxGeometry width="50" height="50" relative="1" as="geometry">
                        <mxPoint x="-240" y="670" as="sourcePoint"/>
                        <mxPoint x="-210" y="640" as="targetPoint"/>
                        <Array as="points">
                            <mxPoint x="-130" y="780"/>
                        </Array>
                    </mxGeometry>
                </mxCell>
                <mxCell id="114" value="Menampilkan pengumuman" style="rounded=1;whiteSpace=wrap;html=1;" vertex="1" parent="1">
                    <mxGeometry x="-250" y="600" width="85" height="40" as="geometry"/>
                </mxCell>
                <mxCell id="115" value="" style="endArrow=classic;html=1;exitX=0.75;exitY=1;exitDx=0;exitDy=0;entryX=1;entryY=0.5;entryDx=0;entryDy=0;" edge="1" parent="1" source="80" target="110">
                    <mxGeometry width="50" height="50" relative="1" as="geometry">
                        <mxPoint x="710" y="530" as="sourcePoint"/>
                        <mxPoint x="385" y="760" as="targetPoint"/>
                        <Array as="points">
                            <mxPoint x="759" y="890"/>
                        </Array>
                    </mxGeometry>
                </mxCell>
                <mxCell id="116" value="" style="endArrow=classic;html=1;exitX=0.5;exitY=1;exitDx=0;exitDy=0;entryX=0;entryY=0.5;entryDx=0;entryDy=0;" edge="1" parent="1" source="56" target="110">
                    <mxGeometry width="50" height="50" relative="1" as="geometry">
                        <mxPoint x="54" y="550" as="sourcePoint"/>
                        <mxPoint x="-350" y="980" as="targetPoint"/>
                        <Array as="points">
                            <mxPoint x="-337" y="820"/>
                        </Array>
                    </mxGeometry>
                </mxCell>
                <mxCell id="117" value="" style="endArrow=classic;html=1;exitX=0;exitY=0.75;exitDx=0;exitDy=0;" edge="1" parent="1" source="110">
                    <mxGeometry width="50" height="50" relative="1" as="geometry">
                        <mxPoint x="-410" y="710" as="sourcePoint"/>
                        <mxPoint x="-440" y="700" as="targetPoint"/>
                        <Array as="points">
                            <mxPoint x="-410" y="920"/>
                        </Array>
                    </mxGeometry>
                </mxCell>
                <mxCell id="118" value="menampilkan pembayaran" style="rounded=1;whiteSpace=wrap;html=1;" vertex="1" parent="1">
                    <mxGeometry x="-480" y="660" width="85" height="40" as="geometry"/>
                </mxCell>
                <mxCell id="137" value="sistem" style="swimlane;whiteSpace=wrap;html=1;fillColor=#f8cecc;strokeColor=#b85450;" vertex="1" parent="1">
                    <mxGeometry x="-1860" y="140" width="200" height="790" as="geometry"/>
                </mxCell>
                <mxCell id="145" value="Menampilkan Dashboard" style="rounded=0;whiteSpace=wrap;html=1;fillColor=#f8cecc;strokeColor=#b85450;" vertex="1" parent="137">
                    <mxGeometry x="60" y="120" width="80" height="40" as="geometry"/>
                </mxCell>
                <mxCell id="158" value="Menampilkan Mapel" style="rounded=0;whiteSpace=wrap;html=1;fillColor=#f8cecc;strokeColor=#b85450;" vertex="1" parent="137">
                    <mxGeometry x="60" y="340" width="80" height="40" as="geometry"/>
                </mxCell>
                <mxCell id="182" value="Menampilkan Pengumuman" style="rounded=0;whiteSpace=wrap;html=1;fillColor=#f8cecc;strokeColor=#b85450;" vertex="1" parent="137">
                    <mxGeometry x="60" y="530" width="80" height="40" as="geometry"/>
                </mxCell>
                <mxCell id="186" value="Menampilkan Pembayaran" style="rounded=0;whiteSpace=wrap;html=1;fillColor=#f8cecc;strokeColor=#b85450;" vertex="1" parent="137">
                    <mxGeometry x="60" y="690" width="80" height="40" as="geometry"/>
                </mxCell>
                <mxCell id="138" value="guru" style="swimlane;whiteSpace=wrap;html=1;fillColor=#dae8fc;strokeColor=#6c8ebf;" vertex="1" parent="1">
                    <mxGeometry x="-1660" y="140" width="200" height="790" as="geometry"/>
                </mxCell>
                <mxCell id="160" value="Dashboard" style="rounded=0;whiteSpace=wrap;html=1;fillColor=#dae8fc;strokeColor=#6c8ebf;" vertex="1" parent="138">
                    <mxGeometry x="60" y="110" width="80" height="40" as="geometry"/>
                </mxCell>
                <mxCell id="162" value="Melihat Mapel" style="rounded=0;whiteSpace=wrap;html=1;fillColor=#dae8fc;strokeColor=#6c8ebf;" vertex="1" parent="138">
                    <mxGeometry x="60" y="290" width="80" height="40" as="geometry"/>
                </mxCell>
                <mxCell id="177" value="Mengisi Nilai" style="rounded=0;whiteSpace=wrap;html=1;fillColor=#dae8fc;strokeColor=#6c8ebf;" vertex="1" parent="138">
                    <mxGeometry x="30" y="400" width="80" height="40" as="geometry"/>
                </mxCell>
                <mxCell id="178" value="Mengisi Kehadiran" style="rounded=0;whiteSpace=wrap;html=1;fillColor=#dae8fc;strokeColor=#6c8ebf;" vertex="1" parent="138">
                    <mxGeometry x="30" y="450" width="80" height="40" as="geometry"/>
                </mxCell>
                <mxCell id="181" value="" style="endArrow=classic;html=1;exitX=0.5;exitY=1;exitDx=0;exitDy=0;fillColor=#d5e8d4;strokeColor=#82b366;" edge="1" parent="138" source="170">
                    <mxGeometry width="50" height="50" relative="1" as="geometry">
                        <mxPoint x="60" y="570" as="sourcePoint"/>
                        <mxPoint x="-60" y="550" as="targetPoint"/>
                        <Array as="points">
                            <mxPoint x="340" y="550"/>
                        </Array>
                    </mxGeometry>
                </mxCell>
                <mxCell id="192" value="LOGIN" style="rounded=0;whiteSpace=wrap;html=1;fillColor=#dae8fc;strokeColor=#6c8ebf;" vertex="1" parent="138">
                    <mxGeometry x="70" y="70" width="60" height="20" as="geometry"/>
                </mxCell>
                <mxCell id="193" value="" style="shape=waypoint;sketch=0;fillStyle=solid;size=6;pointerEvents=1;points=[];fillColor=none;resizable=0;rotatable=0;perimeter=centerPerimeter;snapToPoint=1;strokeWidth=5;" vertex="1" parent="138">
                    <mxGeometry x="90" y="30" width="20" height="20" as="geometry"/>
                </mxCell>
                <mxCell id="196" value="" style="endArrow=classic;html=1;entryX=0.5;entryY=0;entryDx=0;entryDy=0;exitX=0.405;exitY=0.672;exitDx=0;exitDy=0;exitPerimeter=0;fillColor=#dae8fc;strokeColor=#6c8ebf;" edge="1" parent="138" source="193" target="192">
                    <mxGeometry width="50" height="50" relative="1" as="geometry">
                        <mxPoint x="-80" y="150" as="sourcePoint"/>
                        <mxPoint x="-30" y="100" as="targetPoint"/>
                    </mxGeometry>
                </mxCell>
                <mxCell id="197" value="" style="endArrow=classic;html=1;entryX=0.5;entryY=0;entryDx=0;entryDy=0;exitX=0.5;exitY=1;exitDx=0;exitDy=0;fillColor=#dae8fc;strokeColor=#6c8ebf;" edge="1" parent="138" source="192" target="160">
                    <mxGeometry width="50" height="50" relative="1" as="geometry">
                        <mxPoint x="110" y="50" as="sourcePoint"/>
                        <mxPoint x="110" y="80" as="targetPoint"/>
                    </mxGeometry>
                </mxCell>
                <mxCell id="139" value="admin" style="swimlane;whiteSpace=wrap;html=1;fillColor=#d5e8d4;strokeColor=#82b366;" vertex="1" parent="1">
                    <mxGeometry x="-1460" y="140" width="280" height="790" as="geometry"/>
                </mxCell>
                <mxCell id="164" value="Dashboard" style="rounded=0;whiteSpace=wrap;html=1;fillColor=#d5e8d4;strokeColor=#82b366;" vertex="1" parent="139">
                    <mxGeometry x="100" y="160" width="80" height="40" as="geometry"/>
                </mxCell>
                <mxCell id="167" value="Memilih Fitur" style="rounded=0;whiteSpace=wrap;html=1;fillColor=#d5e8d4;strokeColor=#82b366;" vertex="1" parent="139">
                    <mxGeometry x="100" y="250" width="80" height="40" as="geometry"/>
                </mxCell>
                <mxCell id="168" value="Membuat Mapel" style="rounded=0;whiteSpace=wrap;html=1;fillColor=#d5e8d4;strokeColor=#82b366;" vertex="1" parent="139">
                    <mxGeometry x="40" y="340" width="80" height="40" as="geometry"/>
                </mxCell>
                <mxCell id="169" value="Mendata Pembayaran" style="rounded=0;whiteSpace=wrap;html=1;fillColor=#d5e8d4;strokeColor=#82b366;" vertex="1" parent="139">
                    <mxGeometry x="185" y="340" width="80" height="40" as="geometry"/>
                </mxCell>
                <mxCell id="170" value="Memberi Pengumuman" style="rounded=0;whiteSpace=wrap;html=1;fillColor=#d5e8d4;strokeColor=#82b366;" vertex="1" parent="139">
                    <mxGeometry x="100" y="400" width="80" height="40" as="geometry"/>
                </mxCell>
                <mxCell id="194" value="" style="shape=waypoint;sketch=0;fillStyle=solid;size=6;pointerEvents=1;points=[];fillColor=none;resizable=0;rotatable=0;perimeter=centerPerimeter;snapToPoint=1;strokeWidth=5;" vertex="1" parent="139">
                    <mxGeometry x="130" y="30" width="20" height="20" as="geometry"/>
                </mxCell>
                <mxCell id="195" value="LOGIN" style="rounded=0;whiteSpace=wrap;html=1;fillColor=#d5e8d4;strokeColor=#82b366;" vertex="1" parent="139">
                    <mxGeometry x="110" y="70" width="60" height="20" as="geometry"/>
                </mxCell>
                <mxCell id="198" value="" style="endArrow=classic;html=1;entryX=0.5;entryY=0;entryDx=0;entryDy=0;exitX=0.7;exitY=0.416;exitDx=0;exitDy=0;exitPerimeter=0;fillColor=#d5e8d4;strokeColor=#82b366;" edge="1" parent="139" source="194" target="195">
                    <mxGeometry width="50" height="50" relative="1" as="geometry">
                        <mxPoint x="-90" y="50" as="sourcePoint"/>
                        <mxPoint x="-90" y="80" as="targetPoint"/>
                    </mxGeometry>
                </mxCell>
                <mxCell id="199" value="" style="endArrow=classic;html=1;entryX=0.5;entryY=0;entryDx=0;entryDy=0;exitX=0.5;exitY=1;exitDx=0;exitDy=0;fillColor=#d5e8d4;strokeColor=#82b366;" edge="1" parent="139" source="195" target="164">
                    <mxGeometry width="50" height="50" relative="1" as="geometry">
                        <mxPoint x="150" y="50" as="sourcePoint"/>
                        <mxPoint x="150" y="80" as="targetPoint"/>
                    </mxGeometry>
                </mxCell>
                <mxCell id="200" value="" style="endArrow=classic;html=1;exitX=0.5;exitY=1;exitDx=0;exitDy=0;fillColor=#d5e8d4;strokeColor=#82b366;" edge="1" parent="139" source="167">
                    <mxGeometry width="50" height="50" relative="1" as="geometry">
                        <mxPoint x="160" y="60" as="sourcePoint"/>
                        <mxPoint x="140" y="400" as="targetPoint"/>
                    </mxGeometry>
                </mxCell>
                <mxCell id="202" value="" style="endArrow=classic;html=1;exitX=0.25;exitY=1;exitDx=0;exitDy=0;fillColor=#d5e8d4;strokeColor=#82b366;entryX=0.5;entryY=0;entryDx=0;entryDy=0;" edge="1" parent="139" source="167" target="168">
                    <mxGeometry width="50" height="50" relative="1" as="geometry">
                        <mxPoint x="150" y="300" as="sourcePoint"/>
                        <mxPoint x="150" y="410" as="targetPoint"/>
                        <Array as="points">
                            <mxPoint x="120" y="320"/>
                            <mxPoint x="80" y="320"/>
                        </Array>
                    </mxGeometry>
                </mxCell>
                <mxCell id="203" value="" style="endArrow=classic;html=1;exitX=0.75;exitY=1;exitDx=0;exitDy=0;fillColor=#d5e8d4;strokeColor=#82b366;entryX=0.5;entryY=0;entryDx=0;entryDy=0;" edge="1" parent="139" source="167" target="169">
                    <mxGeometry width="50" height="50" relative="1" as="geometry">
                        <mxPoint x="130" y="300" as="sourcePoint"/>
                        <mxPoint x="90" y="350" as="targetPoint"/>
                        <Array as="points">
                            <mxPoint x="160" y="320"/>
                            <mxPoint x="225" y="320"/>
                        </Array>
                    </mxGeometry>
                </mxCell>
                <mxCell id="140" value="orangtua/murid" style="swimlane;whiteSpace=wrap;html=1;fillColor=#ffe6cc;strokeColor=#d79b00;" vertex="1" parent="1">
                    <mxGeometry x="-2090" y="140" width="230" height="790" as="geometry"/>
                </mxCell>
                <mxCell id="141" value="LOGIN" style="rounded=0;whiteSpace=wrap;html=1;fillColor=#ffe6cc;strokeColor=#d79b00;" vertex="1" parent="140">
                    <mxGeometry x="85" y="80" width="60" height="20" as="geometry"/>
                </mxCell>
                <mxCell id="143" value="" style="shape=waypoint;sketch=0;fillStyle=solid;size=6;pointerEvents=1;points=[];fillColor=none;resizable=0;rotatable=0;perimeter=centerPerimeter;snapToPoint=1;strokeWidth=5;" vertex="1" parent="140">
                    <mxGeometry x="105" y="30" width="20" height="20" as="geometry"/>
                </mxCell>
                <mxCell id="144" value="Dashboard" style="rounded=0;whiteSpace=wrap;html=1;fillColor=#ffe6cc;strokeColor=#d79b00;" vertex="1" parent="140">
                    <mxGeometry x="75" y="120" width="80" height="40" as="geometry"/>
                </mxCell>
                <mxCell id="146" value="Memilih Fitur" style="rounded=0;whiteSpace=wrap;html=1;fillColor=#ffe6cc;strokeColor=#d79b00;" vertex="1" parent="140">
                    <mxGeometry x="75" y="200" width="80" height="40" as="geometry"/>
                </mxCell>
                <mxCell id="150" value="" style="endArrow=classic;html=1;exitX=0.5;exitY=1;exitDx=0;exitDy=0;entryX=0.5;entryY=0;entryDx=0;entryDy=0;fillColor=#fff2cc;strokeColor=#d6b656;" edge="1" parent="140" source="141" target="144">
                    <mxGeometry width="50" height="50" relative="1" as="geometry">
                        <mxPoint x="150" y="150" as="sourcePoint"/>
                        <mxPoint x="270" y="150" as="targetPoint"/>
                    </mxGeometry>
                </mxCell>
                <mxCell id="151" value="" style="endArrow=classic;html=1;exitX=0.543;exitY=0.903;exitDx=0;exitDy=0;entryX=0.5;entryY=0;entryDx=0;entryDy=0;exitPerimeter=0;fillColor=#fff2cc;strokeColor=#d6b656;" edge="1" parent="140" source="143" target="141">
                    <mxGeometry width="50" height="50" relative="1" as="geometry">
                        <mxPoint x="110" y="110" as="sourcePoint"/>
                        <mxPoint x="110" y="130" as="targetPoint"/>
                    </mxGeometry>
                </mxCell>
                <mxCell id="152" value="" style="endArrow=classic;html=1;exitX=0.5;exitY=1;exitDx=0;exitDy=0;entryX=0.5;entryY=0;entryDx=0;entryDy=0;fillColor=#ffe6cc;strokeColor=#d79b00;" edge="1" parent="140" source="146" target="153">
                    <mxGeometry width="50" height="50" relative="1" as="geometry">
                        <mxPoint x="160" y="240" as="sourcePoint"/>
                        <mxPoint x="100" y="260" as="targetPoint"/>
                        <Array as="points">
                            <mxPoint x="115" y="260"/>
                            <mxPoint x="180" y="260"/>
                        </Array>
                    </mxGeometry>
                </mxCell>
                <mxCell id="153" value="Melihat Mapel" style="rounded=0;whiteSpace=wrap;html=1;fillColor=#ffe6cc;strokeColor=#d79b00;" vertex="1" parent="140">
                    <mxGeometry x="140" y="290" width="80" height="40" as="geometry"/>
                </mxCell>
                <mxCell id="155" value="Melihat Pengumuman" style="rounded=0;whiteSpace=wrap;html=1;fillColor=#ffe6cc;strokeColor=#d79b00;" vertex="1" parent="140">
                    <mxGeometry x="68" y="520" width="80" height="40" as="geometry"/>
                </mxCell>
                <mxCell id="154" value="" style="endArrow=classic;html=1;exitX=0.412;exitY=0.971;exitDx=0;exitDy=0;exitPerimeter=0;entryX=0.5;entryY=0;entryDx=0;entryDy=0;fillColor=#ffe6cc;strokeColor=#d79b00;" edge="1" parent="140" source="146" target="155">
                    <mxGeometry width="50" height="50" relative="1" as="geometry">
                        <mxPoint x="110" y="260" as="sourcePoint"/>
                        <mxPoint x="103" y="500" as="targetPoint"/>
                        <Array as="points"/>
                    </mxGeometry>
                </mxCell>
                <mxCell id="156" value="Melihat Pembayaran" style="rounded=0;whiteSpace=wrap;html=1;fillColor=#ffe6cc;strokeColor=#d79b00;" vertex="1" parent="140">
                    <mxGeometry x="16" y="650" width="80" height="40" as="geometry"/>
                </mxCell>
                <mxCell id="157" value="" style="endArrow=classic;html=1;exitX=0.25;exitY=1;exitDx=0;exitDy=0;entryX=0.5;entryY=0;entryDx=0;entryDy=0;fillColor=#ffe6cc;strokeColor=#d79b00;" edge="1" parent="140" source="146" target="156">
                    <mxGeometry width="50" height="50" relative="1" as="geometry">
                        <mxPoint x="125" y="250" as="sourcePoint"/>
                        <mxPoint x="190" y="300" as="targetPoint"/>
                        <Array as="points">
                            <mxPoint x="95" y="260"/>
                            <mxPoint x="56" y="260"/>
                        </Array>
                    </mxGeometry>
                </mxCell>
                <mxCell id="171" value="Melihat Nilai" style="rounded=0;whiteSpace=wrap;html=1;fillColor=#ffe6cc;strokeColor=#d79b00;" vertex="1" parent="140">
                    <mxGeometry x="125" y="410" width="80" height="40" as="geometry"/>
                </mxCell>
                <mxCell id="172" value="Melihat Kehadiran" style="rounded=0;whiteSpace=wrap;html=1;fillColor=#ffe6cc;strokeColor=#d79b00;" vertex="1" parent="140">
                    <mxGeometry x="125" y="470" width="80" height="40" as="geometry"/>
                </mxCell>
                <mxCell id="183" value="Informasi Pengumuman" style="rounded=0;whiteSpace=wrap;html=1;fillColor=#ffe6cc;strokeColor=#d79b00;" vertex="1" parent="140">
                    <mxGeometry x="130" y="620" width="80" height="40" as="geometry"/>
                </mxCell>
                <mxCell id="188" value="Status Pembayaran" style="rounded=0;whiteSpace=wrap;html=1;fillColor=#ffe6cc;strokeColor=#d79b00;" vertex="1" parent="140">
                    <mxGeometry x="130" y="739" width="80" height="40" as="geometry"/>
                </mxCell>
                <mxCell id="148" value="" style="endArrow=classic;html=1;exitX=1;exitY=0.5;exitDx=0;exitDy=0;entryX=0;entryY=0.5;entryDx=0;entryDy=0;fillColor=#fff2cc;strokeColor=#d6b656;" edge="1" parent="1" source="144" target="145">
                    <mxGeometry width="50" height="50" relative="1" as="geometry">
                        <mxPoint x="-1920" y="290" as="sourcePoint"/>
                        <mxPoint x="-1870" y="240" as="targetPoint"/>
                    </mxGeometry>
                </mxCell>
                <mxCell id="149" value="" style="endArrow=classic;html=1;entryX=1;entryY=0.5;entryDx=0;entryDy=0;fillColor=#f8cecc;strokeColor=#b85450;exitX=0.25;exitY=1;exitDx=0;exitDy=0;" edge="1" parent="1" source="145" target="146">
                    <mxGeometry width="50" height="50" relative="1" as="geometry">
                        <mxPoint x="-1770" y="320" as="sourcePoint"/>
                        <mxPoint x="-1790" y="290" as="targetPoint"/>
                        <Array as="points">
                            <mxPoint x="-1780" y="360"/>
                        </Array>
                    </mxGeometry>
                </mxCell>
                <mxCell id="159" value="" style="endArrow=classic;html=1;entryX=0.5;entryY=0;entryDx=0;entryDy=0;exitX=1;exitY=0.5;exitDx=0;exitDy=0;fillColor=#ffe6cc;strokeColor=#d79b00;" edge="1" parent="1" source="153" target="158">
                    <mxGeometry width="50" height="50" relative="1" as="geometry">
                        <mxPoint x="-1860" y="460" as="sourcePoint"/>
                        <mxPoint x="-1755" y="470" as="targetPoint"/>
                        <Array as="points">
                            <mxPoint x="-1760" y="450"/>
                        </Array>
                    </mxGeometry>
                </mxCell>
                <mxCell id="161" value="" style="endArrow=classic;html=1;entryX=1;entryY=0.25;entryDx=0;entryDy=0;exitX=0;exitY=0.5;exitDx=0;exitDy=0;fillColor=#dae8fc;strokeColor=#6c8ebf;" edge="1" parent="1" source="160" target="145">
                    <mxGeometry width="50" height="50" relative="1" as="geometry">
                        <mxPoint x="-1860" y="460" as="sourcePoint"/>
                        <mxPoint x="-1750" y="480" as="targetPoint"/>
                        <Array as="points"/>
                    </mxGeometry>
                </mxCell>
                <mxCell id="163" value="" style="endArrow=classic;html=1;exitX=0.5;exitY=1;exitDx=0;exitDy=0;entryX=0;entryY=0.5;entryDx=0;entryDy=0;fillColor=#f8cecc;strokeColor=#b85450;" edge="1" parent="1" source="145" target="162">
                    <mxGeometry width="50" height="50" relative="1" as="geometry">
                        <mxPoint x="-1485" y="380" as="sourcePoint"/>
                        <mxPoint x="-1610" y="390" as="targetPoint"/>
                        <Array as="points">
                            <mxPoint x="-1760" y="450"/>
                        </Array>
                    </mxGeometry>
                </mxCell>
                <mxCell id="165" value="" style="endArrow=classic;html=1;entryX=1;entryY=0.75;entryDx=0;entryDy=0;exitX=0;exitY=0.5;exitDx=0;exitDy=0;fillColor=#d5e8d4;strokeColor=#82b366;" edge="1" parent="1" source="164" target="145">
                    <mxGeometry width="50" height="50" relative="1" as="geometry">
                        <mxPoint x="-1390" y="430" as="sourcePoint"/>
                        <mxPoint x="-1590" y="340" as="targetPoint"/>
                        <Array as="points">
                            <mxPoint x="-1670" y="320"/>
                            <mxPoint x="-1670" y="290"/>
                        </Array>
                    </mxGeometry>
                </mxCell>
                <mxCell id="166" value="" style="endArrow=classic;html=1;exitX=0.75;exitY=1;exitDx=0;exitDy=0;fillColor=#f8cecc;strokeColor=#b85450;entryX=0;entryY=0.5;entryDx=0;entryDy=0;" edge="1" parent="1" source="145" target="167">
                    <mxGeometry width="50" height="50" relative="1" as="geometry">
                        <mxPoint x="-1390" y="360" as="sourcePoint"/>
                        <mxPoint x="-1410" y="380" as="targetPoint"/>
                        <Array as="points">
                            <mxPoint x="-1740" y="380"/>
                            <mxPoint x="-1440" y="380"/>
                            <mxPoint x="-1440" y="410"/>
                        </Array>
                    </mxGeometry>
                </mxCell>
                <mxCell id="173" value="" style="endArrow=classic;html=1;entryX=1;entryY=0.5;entryDx=0;entryDy=0;fillColor=#f8cecc;strokeColor=#b85450;exitX=0.41;exitY=1.018;exitDx=0;exitDy=0;exitPerimeter=0;" edge="1" parent="1" source="158" target="171">
                    <mxGeometry width="50" height="50" relative="1" as="geometry">
                        <mxPoint x="-1760" y="530" as="sourcePoint"/>
                        <mxPoint x="-1740" y="730" as="targetPoint"/>
                        <Array as="points">
                            <mxPoint x="-1767" y="570"/>
                        </Array>
                    </mxGeometry>
                </mxCell>
                <mxCell id="174" value="" style="endArrow=classic;html=1;entryX=1;entryY=0.5;entryDx=0;entryDy=0;exitX=0.5;exitY=1;exitDx=0;exitDy=0;fillColor=#f8cecc;strokeColor=#b85450;" edge="1" parent="1" source="158" target="172">
                    <mxGeometry width="50" height="50" relative="1" as="geometry">
                        <mxPoint x="-1750" y="600" as="sourcePoint"/>
                        <mxPoint x="-1880" y="630" as="targetPoint"/>
                        <Array as="points">
                            <mxPoint x="-1760" y="630"/>
                        </Array>
                    </mxGeometry>
                </mxCell>
                <mxCell id="176" value="" style="endArrow=classic;html=1;entryX=1;entryY=0.25;entryDx=0;entryDy=0;exitX=0.5;exitY=1;exitDx=0;exitDy=0;fillColor=#dae8fc;strokeColor=#6c8ebf;" edge="1" parent="1" source="162" target="158">
                    <mxGeometry width="50" height="50" relative="1" as="geometry">
                        <mxPoint x="-1550" y="480" as="sourcePoint"/>
                        <mxPoint x="-1670" y="480" as="targetPoint"/>
                        <Array as="points">
                            <mxPoint x="-1560" y="490"/>
                        </Array>
                    </mxGeometry>
                </mxCell>
                <mxCell id="179" value="" style="endArrow=classic;html=1;entryX=0;entryY=0.5;entryDx=0;entryDy=0;fillColor=#f8cecc;strokeColor=#b85450;" edge="1" parent="1" target="178">
                    <mxGeometry width="50" height="50" relative="1" as="geometry">
                        <mxPoint x="-1753" y="520" as="sourcePoint"/>
                        <mxPoint x="-1875" y="640" as="targetPoint"/>
                        <Array as="points">
                            <mxPoint x="-1753" y="610"/>
                        </Array>
                    </mxGeometry>
                </mxCell>
                <mxCell id="180" value="" style="endArrow=classic;html=1;entryX=0;entryY=0.5;entryDx=0;entryDy=0;fillColor=#f8cecc;strokeColor=#b85450;" edge="1" parent="1" target="177">
                    <mxGeometry width="50" height="50" relative="1" as="geometry">
                        <mxPoint x="-1746" y="520" as="sourcePoint"/>
                        <mxPoint x="-1620" y="620" as="targetPoint"/>
                        <Array as="points">
                            <mxPoint x="-1746" y="560"/>
                        </Array>
                    </mxGeometry>
                </mxCell>
                <mxCell id="175" value="" style="endArrow=classic;html=1;entryX=0.75;entryY=0;entryDx=0;entryDy=0;exitX=0;exitY=0.5;exitDx=0;exitDy=0;fillColor=#d5e8d4;strokeColor=#82b366;" edge="1" parent="1" source="168" target="158">
                    <mxGeometry width="50" height="50" relative="1" as="geometry">
                        <mxPoint x="-1260" y="680" as="sourcePoint"/>
                        <mxPoint x="-1620" y="650" as="targetPoint"/>
                        <Array as="points">
                            <mxPoint x="-1440" y="500"/>
                            <mxPoint x="-1440" y="420"/>
                            <mxPoint x="-1740" y="420"/>
                        </Array>
                    </mxGeometry>
                </mxCell>
                <mxCell id="184" value="" style="endArrow=classic;html=1;entryX=0;entryY=0.5;entryDx=0;entryDy=0;exitX=1;exitY=0.5;exitDx=0;exitDy=0;fillColor=#ffe6cc;strokeColor=#d79b00;" edge="1" parent="1" source="155" target="182">
                    <mxGeometry width="50" height="50" relative="1" as="geometry">
                        <mxPoint x="-1917.5" y="660" as="sourcePoint"/>
                        <mxPoint x="-1922.5" y="941" as="targetPoint"/>
                        <Array as="points">
                            <mxPoint x="-1880" y="680"/>
                            <mxPoint x="-1880" y="690"/>
                        </Array>
                    </mxGeometry>
                </mxCell>
                <mxCell id="185" value="" style="endArrow=classic;html=1;exitX=0.5;exitY=1;exitDx=0;exitDy=0;entryX=1;entryY=0.5;entryDx=0;entryDy=0;fillColor=#f8cecc;strokeColor=#b85450;" edge="1" parent="1" source="182" target="183">
                    <mxGeometry width="50" height="50" relative="1" as="geometry">
                        <mxPoint x="-1932" y="690" as="sourcePoint"/>
                        <mxPoint x="-1840" y="760" as="targetPoint"/>
                        <Array as="points">
                            <mxPoint x="-1760" y="780"/>
                        </Array>
                    </mxGeometry>
                </mxCell>
                <mxCell id="187" value="" style="endArrow=classic;html=1;exitX=0.5;exitY=1;exitDx=0;exitDy=0;entryX=1;entryY=0.5;entryDx=0;entryDy=0;fillColor=#d5e8d4;strokeColor=#82b366;" edge="1" parent="1" source="169" target="186">
                    <mxGeometry width="50" height="50" relative="1" as="geometry">
                        <mxPoint x="-1270" y="600" as="sourcePoint"/>
                        <mxPoint x="-1710" y="700" as="targetPoint"/>
                        <Array as="points">
                            <mxPoint x="-1235" y="850"/>
                        </Array>
                    </mxGeometry>
                </mxCell>
                <mxCell id="189" value="" style="endArrow=classic;html=1;exitX=0.5;exitY=1;exitDx=0;exitDy=0;entryX=0;entryY=0.5;entryDx=0;entryDy=0;fillColor=#ffe6cc;strokeColor=#d79b00;" edge="1" parent="1" source="156" target="186">
                    <mxGeometry width="50" height="50" relative="1" as="geometry">
                        <mxPoint x="-1750" y="720" as="sourcePoint"/>
                        <mxPoint x="-1870" y="790" as="targetPoint"/>
                        <Array as="points">
                            <mxPoint x="-2034" y="850"/>
                        </Array>
                    </mxGeometry>
                </mxCell>
                <mxCell id="191" value="" style="endArrow=classic;html=1;exitX=0.5;exitY=1;exitDx=0;exitDy=0;entryX=1;entryY=0.5;entryDx=0;entryDy=0;fillColor=#f8cecc;strokeColor=#b85450;" edge="1" parent="1" source="186" target="188">
                    <mxGeometry width="50" height="50" relative="1" as="geometry">
                        <mxPoint x="-1750" y="720" as="sourcePoint"/>
                        <mxPoint x="-1870" y="790" as="targetPoint"/>
                        <Array as="points">
                            <mxPoint x="-1760" y="900"/>
                        </Array>
                    </mxGeometry>
                </mxCell>
                <mxCell id="204" value="LOGIN" style="rounded=0;whiteSpace=wrap;html=1;fillColor=#dae8fc;strokeColor=#6c8ebf;" vertex="1" parent="1">
                    <mxGeometry x="-1720" y="-90" width="60" height="200" as="geometry"/>
                </mxCell>
            </root>
        </mxGraphModel>
    </diagram>
</mxfile>